<svg xmlns="http://www.w3.org/2000/svg" id="svg2" width="330" height="330" version="1.1" viewBox="0 0 330 330"><path id="path4155" fill="none" stroke="#000" stroke-width="3" d="m37.5 52.5v240h240"/><text id="text4157" x="284.352" y="300.002" fill="#000" font-family="sans-serif" font-size="30" line-height="125%" xml:space="preserve" style="word-spacing:0;letter-spacing:0"><tspan id="tspan4159" x="284.352" y="300.002" font-size="22.5">x</tspan></text><text id="text4161" x="30.852" y="39.752" fill="#000" font-family="sans-serif" font-size="30" line-height="125%" xml:space="preserve" style="word-spacing:0;letter-spacing:0"><tspan id="tspan4163" x="30.852" y="39.752" font-size="22.5">y</tspan></text><circle id="path4165" cx="112" cy="178.45" r="3.75" fill="#164bc5"/><g fill="none" stroke="#000" stroke-width="1.5"><path id="path4167" d="m112.5 300.03v-7.5"/><path id="path4169" d="m187.5 300.03v-7.5"/><path id="path4171" d="m262.5 300.03v-7.5"/></g><g fill="#000" font-family="sans-serif" font-size="9"><text id="text4173" x="21.75" y="312.002" line-height="125%" xml:space="preserve" style="word-spacing:0;letter-spacing:0"><tspan id="tspan4175" x="21.75" y="312.002" font-size="15">0</tspan></text><text id="text4177" x="107.25" y="316.502" line-height="125%" xml:space="preserve" style="word-spacing:0;letter-spacing:0"><tspan id="tspan4179" x="107.25" y="316.502" font-size="15">1</tspan></text><text id="text4181" x="183.75" y="316.502" line-height="125%" xml:space="preserve" style="word-spacing:0;letter-spacing:0"><tspan id="tspan4183" x="183.75" y="316.502" font-size="15">2</tspan></text><text id="text4185" x="257.607" y="316.289" line-height="125%" xml:space="preserve" style="word-spacing:0;letter-spacing:0"><tspan id="tspan4187" x="257.607" y="316.289" font-size="15">3</tspan></text></g><g fill="none" stroke="#000" stroke-width="1.5"><path id="path4189" d="m30 67.5h7.5"/><path id="path4191" d="m30 142.5h7.5"/><path id="path4193" d="m30 217.5h7.5"/></g><g fill="#000" font-family="sans-serif" font-size="9"><text id="text4227" x="15.475" y="222.817" line-height="125%" xml:space="preserve" style="word-spacing:0;letter-spacing:0"><tspan id="tspan4229" x="15.475" y="222.817" font-size="15">1</tspan></text><text id="text4231" x="15.71" y="146.749" line-height="125%" xml:space="preserve" style="word-spacing:0;letter-spacing:0"><tspan id="tspan4233" x="15.71" y="146.749" font-size="15">2</tspan></text><text id="text4235" x="15.431" y="72.613" line-height="125%" xml:space="preserve" style="word-spacing:0;letter-spacing:0"><tspan id="tspan4237" x="15.431" y="72.613" font-size="15">3</tspan></text></g><circle id="circle4273" cx="150.96" cy="217.5" r="3.75" fill="#164bc5"/><g fill="#0f9640"><circle id="circle4275" cx="262.55" cy="217.5" r="3.75"/><circle id="circle4279" cx="207.87" cy="139.06" r="3.75"/><circle id="circle4283" cx="225.75" cy="63.288" r="3.75"/></g><circle id="circle4287" cx="79.428" cy="251.65" r="3.75" fill="#164bc5"/><g fill="red"><circle id="circle4307" cx="57.329" cy="81.113" r="3.75"/><circle id="circle4313" cx="112" cy="101.25" r="3.75"/><circle id="circle4315" cx="137.79" cy="117.44" r="3.75"/></g><g fill="none" stroke="#000" stroke-dasharray="4.5 4.5" stroke-width="1.5"><path id="path4170" d="m187.5 292.5v-240"/><path id="path5018" d="m216.75 292.5v-240"/><path id="path5020" d="m245.5 292.5v-240"/><path id="path5024" d="m144.75 292.5v-240"/><path id="path5026" d="m125.5 292.5v-240"/><path id="path5028" d="m97.5 292.5v-240"/><path id="path5030" d="m67.5 292.5v-240"/><path id="path4173" d="m277.5 234.5h-240"/><path id="path4175" d="m277.5 196.5h-240"/><path id="path4177" d="m277.5 158.5h-240"/><path id="path4179" d="m277.5 126.5h-240"/><path id="path4181" d="m277.5 108.5h-240"/><path id="path4183" d="m277.5 90.5h-240"/><path id="path4185" d="m277.5 72.5h-240"/></g></svg>