<svg xmlns="http://www.w3.org/2000/svg" id="svg5353" width="450" height="450" version="1.1" viewBox="0 0 450 450"><g id="layer1" transform="translate(0 -602.36)"><path id="path6337" fill="none" stroke="#000" stroke-width="2" d="m250 680.36-60 94"/><path id="path6339" fill="none" stroke="#000" stroke-width="2" d="m290 680.36 60 94"/><g font-family="sans-serif" font-size="40"><text id="text6341" x="158.822" y="717.362" fill="#000" line-height="125%" xml:space="preserve" style="word-spacing:0;letter-spacing:0"><tspan id="tspan6343" x="158.822" y="717.362" font-size="22.5">x &lt; 2</tspan></text><text id="text6345" x="328.28" y="717.362" fill="#000" line-height="125%" xml:space="preserve" style="word-spacing:0;letter-spacing:0"><tspan id="tspan6347" x="328.28" y="717.362" font-size="22.5">x ≥ 2</tspan></text><text id="text7232" x="44.6" y="1026.044" fill="#164bc5" line-height="125%" opacity=".25" xml:space="preserve" style="word-spacing:0;letter-spacing:0"><tspan id="tspan7234" x="44.6" y="1026.044" fill="#164bc5" font-size="22.5">Blue</tspan></text><text id="text7240" x="336.255" y="870.604" fill="#0f9640" line-height="125%" opacity=".25" xml:space="preserve" style="word-spacing:0;letter-spacing:0"><tspan id="tspan7242" x="336.255" y="870.604" fill="#0f9640" font-size="22.5">Green</tspan></text></g><circle id="path5939" cx="270" cy="649.86" r="36" fill="none" stroke="#000" stroke-width="3"/><circle id="circle4275" cx="276.75" cy="675.55" r="3.75" fill="#0f9640"/><g fill="#164bc5"><circle id="circle6112" cx="263.25" cy="655.61" r="3.75"/><circle id="circle6114" cx="243.75" cy="655.61" r="3.75"/><circle id="circle6116" cx="263.25" cy="677" r="3.75"/></g><circle id="circle6118" cx="276.75" cy="651.77" r="3.75" fill="#0f9640"/><circle id="circle6120" cx="292.1" cy="636.72" r="3.75" fill="#0f9640"/><g fill="red"><circle id="circle5858" cx="243.75" cy="644.11" r="3.75"/><circle id="circle5860" cx="263.25" cy="624.61" r="3.75"/><circle id="circle5864" cx="263.25" cy="644.11" r="3.75"/></g><g id="g5980" opacity=".25" transform="translate(45)"><circle id="circle5884" cx="125" cy="804.86" r="36" fill="none" stroke="#000" stroke-width="3" opacity="1"/><g fill="#164bc5"><circle id="circle5890" cx="118.25" cy="810.61" r="3.75"/><circle id="circle5892" cx="98.75" cy="810.61" r="3.75"/><circle id="circle5894" cx="118.25" cy="832" r="3.75"/></g><g fill="red"><circle id="circle5904" cx="98.75" cy="799.11" r="3.75"/><circle id="circle5906" cx="118.25" cy="779.61" r="3.75"/><circle id="circle5910" cx="118.25" cy="799.11" r="3.75"/></g></g><g id="g5972" opacity=".25" transform="translate(45)"><circle id="circle5914" cx="325" cy="804.86" r="36" fill="none" stroke="#000" stroke-width="3" opacity="1"/><g fill="#0f9640"><circle id="circle5916" cx="331.75" cy="830.55" r="3.75"/><circle id="circle5926" cx="331.75" cy="806.77" r="3.75"/><circle id="circle5928" cx="347.1" cy="791.72" r="3.75"/></g></g><g fill="none" stroke="#000"><path id="path5970" stroke-width="2" d="m290 680.36 60 94"/><path id="path5991" stroke-width="2" d="m150 835.36-60 94" opacity=".25"/><circle id="circle6025" cx="70" cy="959.86" r="36" stroke-width="3" opacity=".25"/></g><g fill="#164bc5"><circle id="circle6029" cx="63.25" cy="965.61" r="3.75" opacity=".25"/><circle id="circle6031" cx="43.75" cy="965.61" r="3.75" opacity=".25"/><circle id="circle6033" cx="63.25" cy="987" r="3.75" opacity=".25"/></g><path id="path6057" fill="none" stroke="#000" stroke-width="2" d="m190 835.36 60 94" opacity=".25"/><circle id="circle6061" cx="270" cy="959.86" r="36" fill="none" stroke="#000" stroke-width="3" opacity=".25"/><g fill="red"><circle id="circle6071" cx="243.75" cy="954.11" r="3.75" opacity=".25"/><circle id="circle6073" cx="263.25" cy="934.61" r="3.75" opacity=".25"/><circle id="circle6077" cx="263.25" cy="954.11" r="3.75" opacity=".25"/></g><g font-family="sans-serif" font-size="40"><text id="text6097" x="52.822" y="879.682" fill="#000" line-height="125%" opacity=".25" xml:space="preserve" style="word-spacing:0;letter-spacing:0"><tspan id="tspan6099" x="52.822" y="879.682" font-size="22.5">y &lt; 2</tspan></text><text id="text6101" x="228.822" y="879.682" fill="#000" line-height="125%" opacity=".25" xml:space="preserve" style="word-spacing:0;letter-spacing:0"><tspan id="tspan6103" x="228.822" y="879.682" font-size="22.5">y ≥ 2</tspan></text><text id="text6105" x="248.538" y="1026.044" fill="red" line-height="125%" opacity=".25" xml:space="preserve" style="word-spacing:0;letter-spacing:0"><tspan id="tspan6107" x="248.538" y="1026.044" fill="red" font-size="22.5">Red</tspan></text></g></g></svg>