<svg xmlns="http://www.w3.org/2000/svg" id="svg5353" width="600" height="360" version="1.1" viewBox="0 0 600 360"><g id="layer1" transform="translate(0 -692.36)"><rect id="rect8726" width="598" height="216" x="1" y="695.36" fill="none" stroke="#000" stroke-width="2"/><g id="g5877" fill="none" stroke="#000" transform="matrix(.25 0 0 .25 26 582.01)"><path id="path6337" stroke-width="4" d="m250 715.36-60 94"/><path id="path6339" stroke-width="2" d="m290 715.36 60 94"/><g stroke-width="4"><circle id="path5939" cx="270" cy="684.86" r="36"/><circle id="circle5884" cx="170" cy="839.86" r="36"/><circle id="circle5914" cx="370" cy="839.86" r="36"/></g><g stroke-width="4"><path id="path5970" d="m290 715.36 60 94"/><path id="path5991" d="m150 870.36-60 94"/><circle id="circle6025" cx="70" cy="994.86" r="36"/><path id="path6057" d="m190 870.36 60 94"/><circle id="circle6061" cx="270" cy="994.86" r="36"/></g></g><text id="text7232" x="66.889" y="862.15" fill="#164bc5" font-family="sans-serif" font-size="12.5" line-height="125%" xml:space="preserve" style="word-spacing:0;letter-spacing:0"><tspan id="tspan7234" x="66.889" y="862.15" fill="#164bc5" font-size="12.5">Blue</tspan></text><g id="g8728" fill="none" stroke="#000" transform="translate(-50,110)"><path id="path8454" d="m231.5 650.85 15 23.5"/><path id="path8456" stroke-width=".5" d="m221.5 650.85-15 23.5"/><g><circle id="circle8458" cx="-226.5" cy="643.22" r="9" transform="scale(-1,1)"/><circle id="circle8460" cx="-251.5" cy="681.97" r="9" transform="scale(-1,1)"/><circle id="circle8462" cx="-201.5" cy="681.97" r="9" transform="scale(-1,1)"/></g><g><path id="path8464" d="m221.5 650.85-15 23.5"/><path id="path8466" d="m256.5 689.6 15 23.5"/><circle id="circle8468" cx="-276.5" cy="720.72" r="9" transform="scale(-1,1)"/><path id="path8470" d="m246.5 689.6-15 23.5"/><circle id="circle8472" cx="-226.5" cy="720.72" r="9" transform="scale(-1,1)"/></g></g><text id="text8474" x="174.889" y="862.15" fill="#164bc5" font-family="sans-serif" font-size="12.5" line-height="125%" xml:space="preserve" style="word-spacing:0;letter-spacing:0"><tspan id="tspan8476" x="174.889" y="862.15" fill="#164bc5" font-size="12.5">Blue</tspan></text><g id="g8480" fill="none" stroke="#000" transform="matrix(.25 0 0 .25 242 582.01)"><path id="path8482" stroke-width="4" d="m250 715.36-60 94"/><path id="path8484" stroke-width="2" d="m290 715.36 60 94"/><g stroke-width="4"><circle id="circle8486" cx="270" cy="684.86" r="36"/><circle id="circle8488" cx="170" cy="839.86" r="36"/><circle id="circle8490" cx="370" cy="839.86" r="36"/></g><g stroke-width="4"><path id="path8492" d="m290 715.36 60 94"/><path id="path8494" d="m150 870.36-60 94"/><circle id="circle8496" cx="70" cy="994.86" r="36"/><path id="path8498" d="m190 870.36 60 94"/><circle id="circle8500" cx="270" cy="994.86" r="36"/></g></g><g id="g8508" fill="none" stroke="#000" transform="matrix(.25 0 0 .25 350 582.01)"><path id="path8510" stroke-width="4" d="m250 715.36-60 94"/><path id="path8512" stroke-width="2" d="m290 715.36 60 94"/><g stroke-width="4"><circle id="circle8514" cx="270" cy="684.86" r="36"/><circle id="circle8516" cx="170" cy="839.86" r="36"/><circle id="circle8518" cx="370" cy="839.86" r="36"/></g><g stroke-width="4"><path id="path8520" d="m290 715.36 60 94"/><path id="path8522" d="m150 870.36-60 94"/><circle id="circle8524" cx="70" cy="994.86" r="36"/><path id="path8526" d="m190 870.36 60 94"/><circle id="circle8528" cx="270" cy="994.86" r="36"/></g></g><text id="text8530" x="390.889" y="862.15" fill="#164bc5" font-family="sans-serif" font-size="12.5" line-height="125%" xml:space="preserve" style="word-spacing:0;letter-spacing:0"><tspan id="tspan8532" x="390.889" y="862.15" fill="#164bc5" font-size="12.5">Blue</tspan></text><g id="g8714" fill="none" stroke="#000" transform="translate(-34,110)"><path id="path8538" d="m539.5 650.85 15 23.5"/><path id="path8540" stroke-width=".5" d="m529.5 650.85-15 23.5"/><g><circle id="circle8542" cx="-534.5" cy="643.22" r="9" transform="scale(-1,1)"/><circle id="circle8544" cx="-559.5" cy="681.97" r="9" transform="scale(-1,1)"/><circle id="circle8546" cx="-509.5" cy="681.97" r="9" transform="scale(-1,1)"/></g><g><path id="path8548" d="m529.5 650.85-15 23.5"/><path id="path8550" d="m564.5 689.6 15 23.5"/><circle id="circle8552" cx="-584.5" cy="720.72" r="9" transform="scale(-1,1)"/><path id="path8554" d="m554.5 689.6-15 23.5"/><circle id="circle8556" cx="-534.5" cy="720.72" r="9" transform="scale(-1,1)"/></g></g><text id="text7240" x="278.253" y="862.15" fill="#0f9640" font-family="sans-serif" font-size="12.5" line-height="125%" xml:space="preserve" style="word-spacing:0;letter-spacing:0"><tspan id="tspan7242" x="278.253" y="862.15" fill="#0f9640" font-size="12.5">Green</tspan></text><text id="text6105" x="501.077" y="862.15" fill="red" font-family="sans-serif" font-size="12.5" line-height="125%" xml:space="preserve" style="word-spacing:0;letter-spacing:0"><tspan id="tspan6107" x="501.077" y="862.15" fill="red" font-size="12.5">Red</tspan></text><g id="g8752" fill="none" stroke="#000" stroke-linejoin="round" stroke-width="2" transform="translate(-40 114)"><path id="path8740" d="m340 822.36v60l-20-20"/><path id="path8742" d="m340 882.36 20-20"/></g><text id="text8756" x="266.133" y="1042.76" fill="#164bc5" font-family="sans-serif" font-size="40" line-height="125%" xml:space="preserve" style="word-spacing:0;letter-spacing:0"><tspan id="tspan8758" x="266.133" y="1042.76" fill="#164bc5" font-size="30">Blue</tspan></text></g></svg>