<svg xmlns="http://www.w3.org/2000/svg" id="svg2" width="700" height="250" version="1.1" viewBox="0 0 700 250"><rect id="rect4244" width="700" height="250" x="0" y="0" fill="#fff"/><g id="g4358" transform="translate(.0000010520)"><path id="path4321" fill="none" stroke="#000" stroke-linejoin="round" stroke-width="4" d="m201.92 144-10 10m-30-10h40l-10-10"/><text style="word-spacing:0;letter-spacing:0" id="text4351" x="161.812" y="181.042" fill="#000" font-family="sans-serif" font-size="40" line-height="125%" xml:space="preserve"><tspan id="tspan4353" x="161.812" y="181.042" font-size="17.5">conv</tspan></text><g id="g4181" transform="translate(-150.71)"><path id="path4234" fill="#fff" fill-rule="evenodd" stroke="#000" stroke-linejoin="round" stroke-width="2.154" d="m174.91 203.44h107.7v-107.7h-107.7z"/><text style="word-spacing:0;letter-spacing:0" id="text4246" x="197.325" y="59.282" fill="#000" font-family="sans-serif" font-size="40" line-height="125%" xml:space="preserve"><tspan id="tspan4248" x="197.325" y="59.282" font-size="20">28x28</tspan></text></g><g id="g4173" transform="translate(-182.71)"><g id="g4312" fill="none" stroke="#000" stroke-linejoin="round" stroke-width="2" transform="translate(20,-782.36)"><path id="path4156" d="m395.17 886.93 20-20h100v100l-20 20"/><path id="path4158" d="m495.17 886.93 20-20"/><path id="path4150" d="m395.17 886.93v100h100v-100z"/></g><text style="word-spacing:0;letter-spacing:0" id="text4250" x="431.454" y="59.282" fill="#000" font-family="sans-serif" font-size="40" line-height="125%" xml:space="preserve"><tspan id="tspan4252" x="431.454" y="59.282" font-size="20">26x26x8</tspan></text></g><g id="g4251" transform="translate(26.122)"><g id="g4153" fill="none" stroke="#000" stroke-linejoin="round" stroke-width="4" transform="matrix(.5 0 0 .5 250.12 -318.9)"><path id="path4155" d="m395.17 886.93 40-40h100v100l-40 40"/><path id="path4157" d="m495.17 886.93 40-40"/><path id="path4159" d="m395.17 886.93v100h100v-100z"/></g><text style="word-spacing:0;letter-spacing:0" id="text4161" x="438.624" y="59.282" fill="#000" font-family="sans-serif" font-size="40" line-height="125%" xml:space="preserve"><tspan id="tspan4163" x="438.624" y="59.282" font-size="20">13x13x8</tspan></text></g><g id="g4353" transform="translate(4)"><path id="path4231" fill="none" stroke="#000" stroke-linejoin="round" stroke-width="4" d="m426.54 144-10 10m-30-10h40l-10-10"/><text style="word-spacing:0;letter-spacing:0" id="text4233" x="369.812" y="181.042" fill="#000" font-family="sans-serif" font-size="40" line-height="125%" xml:space="preserve"><tspan id="tspan4235" x="369.812" y="181.042" font-size="17.5">maxpool</tspan></text></g><g id="g4236" transform="translate(18.122)"><g id="g4203" fill="none" stroke="#000" stroke-linejoin="round" stroke-width="2" transform="translate(11.504 -12)"><circle id="path4183" cx="636.28" cy="99.502" r="5"/><circle id="circle4185" cx="636.28" cy="114.5" r="5"/><circle id="circle4187" cx="636.28" cy="129.5" r="5"/><circle id="circle4189" cx="636.28" cy="144.5" r="5"/><circle id="circle4191" cx="636.28" cy="159.5" r="5"/><circle id="circle4193" cx="636.28" cy="174.5" r="5"/><circle id="circle4195" cx="636.28" cy="189.5" r="5"/><circle id="circle4197" cx="636.28" cy="204.5" r="5"/><circle id="circle4199" cx="636.28" cy="219.5" r="5"/><circle id="circle4201" cx="636.28" cy="234.5" r="5"/></g><text style="word-spacing:0;letter-spacing:0" id="text4221" x="634.624" y="59.282" fill="#000" font-family="sans-serif" font-size="40" line-height="125%" xml:space="preserve"><tspan id="tspan4223" x="634.624" y="59.282" font-size="20">10</tspan></text></g><g id="g4231" transform="translate(16.362)"><path id="path4225" fill="none" stroke="#000" stroke-linejoin="round" stroke-width="4" d="m602.25 144-10 10m-30-10h40l-10-10"/><text style="word-spacing:0;letter-spacing:0" id="text4227" x="547.69" y="181.042" fill="#000" font-family="sans-serif" font-size="40" line-height="125%" xml:space="preserve"><tspan id="tspan4229" x="547.69" y="181.042" font-size="17.5">softmax</tspan></text></g></g></svg>