<svg xmlns="http://www.w3.org/2000/svg" id="svg2" width="751" height="401" version="1.1" viewBox="0 0 751 401"><rect id="rect6012" width="751" height="401" x="0" y="0" fill="#fff"/><g stroke="#fff"><g stroke-width="2"><rect id="rect4191" width="99" height="99" x="1" y="301"/><rect id="rect4198" width="99" height="99" x="101" y="301"/><rect id="rect4204" width="99" height="99" x="201" y="301"/><rect id="rect4210" width="99" height="99" x="201" y="201"/><rect id="rect4222" width="99" height="99" x="101" y="101"/></g><rect id="rect4228" width="99" height="99" x="101" y="201" fill="#0b692d"/><g stroke-width="2"><rect id="rect4234" width="99" height="99" x="1" y="201"/><rect id="rect4240" width="99" height="99" x="1" y="101"/><rect id="rect4275" width="99" height="99" x="301" y="301" fill="#052d13"/><rect id="rect4281" width="99" height="99" x="301" y="201"/><rect id="rect4287" width="99" height="99" x="301" y="101"/><rect id="rect4293" width="99" height="99" x="1" y="1"/><rect id="rect4299" width="99" height="99" x="101" y="1" fill="#0f9640"/><rect id="rect4305" width="99" height="99" x="201" y="1"/></g></g><g stroke="#fff" stroke-width="2"><rect id="rect4311" width="99" height="99" x="301" y="1"/><rect id="rect4216" width="99" height="99" x="201" y="101" fill="#074b20"/><rect id="rect4136-4" width="99" height="99" x="551" y="201" fill="#0b692d"/><rect id="rect4149-6" width="99" height="99" x="651" y="201" fill="#052d14"/><rect id="rect4197-0" width="99" height="99" x="651" y="101" fill="#074b20"/><rect id="rect4205-0" width="99" height="99" x="551" y="101" fill="#0f9540"/></g><path id="path4321" fill="none" stroke="#000" stroke-linejoin="round" stroke-width="4" d="m450 200.5 10-10m30 10h-40l10 10"/></svg>