<svg xmlns="http://www.w3.org/2000/svg" xmlns:svg="http://www.w3.org/2000/svg" id="Capa_1" width="333" height="333" x="0" y="0" version="1.1" viewBox="0 0 333 333" xml:space="preserve"><metadata id="metadata43"/><g id="g6" transform="translate(10.068168,9.9848771)" style="fill:#ffff5f;fill-opacity:1;stroke:#ffc02b;stroke-width:20;stroke-miterlimit:4;stroke-dasharray:none;stroke-opacity:1"><g id="g4" style="fill:#ffff5f;fill-opacity:1;stroke:#ffc02b;stroke-width:20;stroke-miterlimit:4;stroke-dasharray:none;stroke-opacity:1"><path id="path2" d="m 305.6,178.053 c -3.2,-0.8 -6.4,0 -9.2,2 -10.4,8.8 -22.4,16 -35.6,20.8 -12.4,4.8 -26,7.2 -40.4,7.2 -32.4,0 -62,-13.2 -83.2,-34.4 -21.2,-21.2 -34.4,-50.8 -34.4,-83.2 0,-13.6 2.4,-26.8 6.4,-38.8 4.4,-12.8 10.8,-24.4 19.2,-34.4 3.6,-4.4 2.8,-10.8 -1.6,-14.4 -2.8,-2 -6,-2.8 -9.2,-2 -34,9.2 -63.6,29.6 -84.8,56.8 -20.4,26.8 -32.8,60 -32.8,96.4 0,43.6 17.6,83.2 46.4,112 28.8,28.8 68.4,46.4 112,46.4 36.8,0 70.8,-12.8 98,-34 27.6,-21.6 47.6,-52.4 56,-87.6 2,-6 -1.2,-11.6 -6.8,-12.8 z" style="fill:#ffff5f;fill-opacity:1;stroke:#ffc02b;stroke-width:20;stroke-miterlimit:4;stroke-dasharray:none;stroke-opacity:1"/></g></g></svg>