<svg xmlns="http://www.w3.org/2000/svg" xmlns:svg="http://www.w3.org/2000/svg" id="Capa_1" width="307.56" height="307.56" x="0" y="0" version="1.1" viewBox="0 0 307.56 307.56" xml:space="preserve"><metadata id="metadata91"/><g id="g6" transform="matrix(0.9999,0,0,0.9999,2.59512,2.5951177)" style="fill:#f8b45d;fill-opacity:1"><g id="g4" style="fill:#f8b45d;fill-opacity:1"><path id="path2" d="M 204.8,97.6 C 191.2,84 172,75.2 151.2,75.2 c -20.8,0 -40,8.4 -53.6,22.4 -13.6,13.6 -22.4,32.8 -22.4,53.6 0,20.8 8.8,40 22.4,53.6 13.6,13.6 32.8,22.4 53.6,22.4 20.8,0 40,-8.4 53.6,-22.4 13.6,-13.6 22.4,-32.8 22.4,-53.6 0,-20.8 -8.4,-40 -22.4,-53.6 z" style="fill:#f8b45d;fill-opacity:1"/></g></g><g id="g12" transform="matrix(1.1,0,0,1.1,-25.08,-12.540002)" style="fill:#f8b45d;fill-opacity:1;stroke:none;stroke-opacity:1"><g id="g10" style="fill:#f8b45d;fill-opacity:1;stroke:none;stroke-opacity:1"><path id="path8" d="m 292,140.8 h -30.8 c -5.6,0 -10.4,4.8 -10.4,10.4 0,5.6 4.8,10.4 10.4,10.4 H 292 c 5.6,0 10.4,-4.8 10.4,-10.4 0,-5.6 -4.8,-10.4 -10.4,-10.4 z" style="fill:#f8b45d;fill-opacity:1;stroke:none;stroke-opacity:1"/></g></g><g id="g18" transform="matrix(1.1,0,0,1.1,-12.54,-25.080002)" style="fill:#f8b45d;fill-opacity:1;stroke:none;stroke-opacity:1"><g id="g16" style="fill:#f8b45d;fill-opacity:1;stroke:none;stroke-opacity:1"><path id="path14" d="m 151.2,250.8 c -5.6,0 -10.4,4.8 -10.4,10.4 V 292 c 0,5.6 4.8,10.4 10.4,10.4 5.6,0 10.4,-4.8 10.4,-10.4 v -30.8 c 0,-5.6 -4.8,-10.4 -10.4,-10.4 z" style="fill:#f8b45d;fill-opacity:1;stroke:none;stroke-opacity:1"/></g></g><g id="g24" transform="matrix(1.1,0,0,1.1,-21.4,-21.400002)" style="fill:#fffa58;fill-opacity:1;stroke:none;stroke-opacity:1"><g id="g22" style="fill:#fffa58;fill-opacity:1;stroke:none;stroke-opacity:1"><path id="path20" d="m 258,243.6 -22,-22 c -3.6,-4 -10.4,-4 -14.4,0 -4,4 -4,10.4 0,14.4 l 22,22 c 4,4 10.4,4 14.4,0 4,-4 4,-10.4 0,-14.4 z" style="fill:#fffa58;fill-opacity:1;stroke:none;stroke-opacity:1"/></g></g><g id="g30" transform="matrix(1.1,0,0,1.1,-12.54,-2.3414062e-6)" style="fill:#f8b45d;fill-opacity:1;stroke:none;stroke-opacity:1"><g id="g28" style="fill:#f8b45d;fill-opacity:1;stroke:none;stroke-opacity:1"><path id="path26" d="m 151.2,0 c -5.6,0 -10.4,4.8 -10.4,10.4 v 30.8 c 0,5.6 4.8,10.4 10.4,10.4 5.6,0 10.4,-4.8 10.4,-10.4 V 10.4 C 161.6,4.8 156.8,0 151.2,0 Z" style="fill:#f8b45d;fill-opacity:1;stroke:none;stroke-opacity:1"/></g></g><g id="g36" transform="matrix(1.1,0,0,1.1,-21.44,-3.6800023)" style="fill:#fffa58;fill-opacity:1;stroke:none;stroke-opacity:1"><g id="g34" style="fill:#fffa58;fill-opacity:1;stroke:none;stroke-opacity:1"><path id="path32" d="m 258.4,44.4 c -4,-4 -10.4,-4 -14.4,0 l -22,22 c -4,4 -4,10.4 0,14.4 3.6,4 10.4,4 14.4,0 l 22,-22 c 4,-4 4,-10.4 0,-14.4 z" style="fill:#fffa58;fill-opacity:1;stroke:none;stroke-opacity:1"/></g></g><g id="g42" transform="matrix(1.1,0,0,1.1,0,-12.540002)" style="fill:#f8b45d;fill-opacity:1;stroke:none;stroke-opacity:1"><g id="g40" style="fill:#f8b45d;fill-opacity:1;stroke:none;stroke-opacity:1"><path id="path38" d="M 41.2,140.8 H 10.4 c -5.6,0 -10.4,4.8 -10.4,10.4 0,5.6 4.4,10.4 10.4,10.4 h 30.8 c 5.6,0 10.4,-4.8 10.4,-10.4 0,-5.6 -4.8,-10.4 -10.4,-10.4 z" style="fill:#f8b45d;fill-opacity:1;stroke:none;stroke-opacity:1"/></g></g><g id="g48" transform="matrix(1.1,0,0,1.1,-3.64,-21.400002)" style="fill:#fffa58;fill-opacity:1;stroke:none;stroke-opacity:1"><g id="g46" style="fill:#fffa58;fill-opacity:1;stroke:none;stroke-opacity:1"><path id="path44" d="m 80.4,221.6 c -3.6,-4 -10.4,-4 -14.4,0 l -22,22 c -4,4 -4,10.4 0,14.4 4,4 10.4,4 14.4,0 l 22,-22 c 4,-4 4,-10.4 0,-14.4 z" style="fill:#fffa58;fill-opacity:1;stroke:none;stroke-opacity:1"/></g></g><g id="g54" transform="matrix(1.1,0,0,1.1,-3.64,-3.6800023)" style="fill:#fffa58;fill-opacity:1;stroke:none;stroke-opacity:1"><g id="g52" style="fill:#fffa58;fill-opacity:1;stroke:none;stroke-opacity:1"><path id="path50" d="m 80.4,66.4 -22,-22 c -4,-4 -10.4,-4 -14.4,0 -4,4 -4,10.4 0,14.4 l 22,22 c 4,4 10.4,4 14.4,0 4,-4 4,-10.4 0,-14.4 z" style="fill:#fffa58;fill-opacity:1;stroke:none;stroke-opacity:1"/></g></g></svg>